<svg width="804" height="984" viewBox="0 0 804 984" fill="none" xmlns="http://www.w3.org/2000/svg">
<path d="M407.5 282C421.884 282.074 430.127 279.93 445 274L512.5 249C531.489 242.779 542.78 240.397 564 238C605.47 235.936 627.236 238.376 663.5 249C686.642 257.66 717.861 278.386 720 278.5C722.14 278.614 744.257 298.596 757.5 310.5L777 335.5L763.5 344.5C751.26 352.452 745.43 357.364 737 367C730.282 373.885 726.79 377.601 721 384L706 403L695.5 420.5L684.5 444L677 469.5L673 488L670.5 509C669.453 528.291 669.479 538.443 670.5 555.5C673.872 574.481 677.061 584.613 684.5 602C692.288 620.077 697.335 629.336 707 645C719.62 660.308 726.618 667.754 739 679.5C749.825 690.994 756.52 696.097 769.5 703L802.5 721.5L788.5 761L771 800L750.5 838.5L721 882L686 926L666.5 945.5L643.5 963.5L625.5 973.5L606.5 980.5L599.5 981.5C582.788 982.47 573.313 982.643 556 981.5L524 971.5L493.5 958.5L478.5 952.5C469.959 948.891 455.5 946.5 455.5 946.5L436.5 944.5C419.032 943.104 409.177 943.368 391.5 945.5C384.669 947.29 392.458 945.078 372.5 950.5C366.456 951.366 363.061 952.345 357 954.5L325.5 967.5L296.5 978.5L275.5 982.5C260.766 983.306 252.365 983.385 237 982.5L208.5 971.5L186.5 956.5L154.5 924.5L103.5 858.5L72.5 807.5L52.5 767.5L44.5 747.5C31.7972 714.913 26.1482 695.962 17.5 661.5C11.8039 642.83 10.122 632.134 7.50004 613C4.57167 594.355 3.49155 583.731 2.50004 564.5C1.52644 554.665 1.38259 549.066 1.50004 539C1.33427 520.607 1.53955 510.152 3.50004 492.5C10.1741 436.333 19.8687 406.573 47.5 356.5C80.9379 305.613 107.442 283.378 168 254.5C218.965 237.293 247.85 235.67 300 249C327.875 256.84 342.639 262.334 367.5 274C383.484 279.349 392.275 281.301 407.5 282Z" fill="black"/>
<path d="M455.5 946.5C455.5 946.5 469.959 948.891 478.5 952.5L493.5 958.5L524 971.5L556 981.5C573.313 982.643 582.788 982.47 599.5 981.5L606.5 980.5L625.5 973.5L643.5 963.5L666.5 945.5L686 926L721 882L750.5 838.5L771 800L788.5 761L802.5 721.5L769.5 703C756.52 696.097 749.825 690.994 739 679.5C726.618 667.754 719.62 660.308 707 645C697.335 629.336 692.288 620.077 684.5 602C677.061 584.613 673.872 574.481 670.5 555.5C669.479 538.443 669.453 528.291 670.5 509L673 488L677 469.5L684.5 444L695.5 420.5L706 403L721 384C726.79 377.601 730.282 373.885 737 367C745.43 357.364 751.26 352.452 763.5 344.5L777 335.5L757.5 310.5C744.257 298.596 722.14 278.614 720 278.5C717.861 278.386 686.642 257.66 663.5 249C627.236 238.376 605.47 235.936 564 238C542.78 240.397 531.489 242.779 512.5 249L445 274C430.127 279.93 421.884 282.074 407.5 282C392.275 281.301 383.484 279.349 367.5 274C342.639 262.334 327.875 256.84 300 249C247.85 235.67 218.965 237.293 168 254.5C107.442 283.378 80.9378 305.613 47.5 356.5C19.8687 406.573 10.1741 436.333 3.50004 492.5C1.53955 510.152 1.33427 520.607 1.50004 539C1.38259 549.066 1.52644 554.665 2.50004 564.5C3.49155 583.731 4.57167 594.355 7.50004 613C10.122 632.134 11.8039 642.83 17.5 661.5C26.1482 695.962 31.7972 714.913 44.5 747.5L52.5 767.5L72.5 807.5L103.5 858.5L154.5 924.5L186.5 956.5L208.5 971.5L237 982.5C252.365 983.385 260.766 983.306 275.5 982.5L296.5 978.5L325.5 967.5L357 954.5C363.061 952.345 366.456 951.366 372.5 950.5C392.458 945.078 384.669 947.29 391.5 945.5C409.177 943.368 419.032 943.104 436.5 944.5M455.5 946.5C455.5 946.5 444.204 944.385 436.5 944.5M455.5 946.5L436.5 944.5" stroke="black"/>
<path d="M454.5 72.5C432.349 98.8553 422.017 116.207 407.5 152C402.685 164.329 400.5 186 400.5 186C400.5 186 397.733 210.379 400.5 226C412.345 226.638 418.365 226.632 428 226C448.469 222.176 459.962 218.825 480.5 210C500.783 198.52 510.936 191.499 527 178C542.575 163.273 550.773 153.941 564 134.5C577.136 110.986 583.183 97.42 591.5 72.5C598.461 48.2152 598.109 37.9471 596 1C561.033 3.31035 543.041 8.59052 514 25.5C485.634 41.0454 472.709 51.3915 454.5 72.5Z" fill="black" stroke="#0F0E0E"/>
</svg>
