<svg width="34" height="33" viewBox="0 0 34 33" fill="none" xmlns="http://www.w3.org/2000/svg">
<g clip-path="url(#clip0_5862_557)">
<path d="M17 33C26.3888 33 34 25.6127 34 16.5C34 7.3873 26.3888 0 17 0C7.61116 0 0 7.3873 0 16.5C0 25.6127 7.61116 33 17 33Z" fill="url(#paint0_linear_5862_557)"/>
<path d="M20.4358 8.25H13.5642C12.2216 8.25172 10.9346 8.77013 9.98523 9.69155C9.03589 10.613 8.50178 11.8622 8.5 13.1653V19.8347C8.50178 21.1378 9.03589 22.387 9.98523 23.3084C10.9346 24.2299 12.2216 24.7483 13.5642 24.75H20.4358C21.7785 24.7488 23.066 24.2306 24.0154 23.3091C24.9649 22.3875 25.4988 21.138 25.5 19.8347V13.1653C25.4982 11.8622 24.9641 10.613 24.0148 9.69155C23.0654 8.77013 21.7784 8.25172 20.4358 8.25ZM23.7911 19.8347C23.7911 20.6984 23.4376 21.5268 22.8083 22.1375C22.1791 22.7482 21.3257 23.0913 20.4358 23.0913H13.5642C12.6743 23.0913 11.8209 22.7482 11.1917 22.1375C10.5624 21.5268 10.2089 20.6984 10.2089 19.8347V13.1653C10.2089 12.3016 10.5624 11.4732 11.1917 10.8625C11.8209 10.2518 12.6743 9.90868 13.5642 9.90868H20.4358C21.3257 9.90868 22.1791 10.2518 22.8083 10.8625C23.4376 11.4732 23.7911 12.3016 23.7911 13.1653V19.8347Z" fill="white"/>
<path d="M17.0014 12.2334C16.1315 12.233 15.2809 12.483 14.5574 12.9518C13.8339 13.4207 13.2699 14.0873 12.9367 14.8673C12.6036 15.6473 12.5163 16.5057 12.686 17.3339C12.8556 18.162 13.2744 18.9228 13.8896 19.5198C14.5048 20.1169 15.2885 20.5235 16.1418 20.6881C16.9951 20.8527 17.8795 20.768 18.6831 20.4447C19.4868 20.1213 20.1736 19.5739 20.6566 18.8717C21.1397 18.1694 21.3973 17.3439 21.3968 16.4995C21.3956 15.3684 20.9322 14.284 20.1081 13.4842C19.2841 12.6844 18.1668 12.2345 17.0014 12.2334ZM17.0014 19.1048C16.4705 19.1048 15.9516 18.952 15.5102 18.6657C15.0687 18.3795 14.7247 17.9726 14.5215 17.4965C14.3184 17.0205 14.2652 16.4966 14.3688 15.9913C14.4724 15.4859 14.728 15.0217 15.1034 14.6573C15.4788 14.293 15.9571 14.0448 16.4778 13.9443C16.9985 13.8438 17.5382 13.8954 18.0286 14.0926C18.5191 14.2898 18.9383 14.6237 19.2333 15.0521C19.5282 15.4805 19.6856 15.9842 19.6856 16.4995C19.6856 17.1905 19.4028 17.8531 18.8995 18.3417C18.3961 18.8303 17.7133 19.1048 17.0014 19.1048Z" fill="white"/>
<path d="M21.423 13.289C22.0234 13.289 22.5102 12.8166 22.5102 12.2338C22.5102 11.6511 22.0234 11.1787 21.423 11.1787C20.8227 11.1787 20.3359 11.6511 20.3359 12.2338C20.3359 12.8166 20.8227 13.289 21.423 13.289Z" fill="white"/>
</g>
<defs>
<linearGradient id="paint0_linear_5862_557" x1="17" y1="32.848" x2="17" y2="2.23618" gradientUnits="userSpaceOnUse">
<stop stop-color="#E09B3D"/>
<stop offset="0.24" stop-color="#C74C4D"/>
<stop offset="0.65" stop-color="#C21975"/>
<stop offset="1" stop-color="#7024C4"/>
</linearGradient>
<clipPath id="clip0_5862_557">
<rect width="34" height="33" fill="white"/>
</clipPath>
</defs>
</svg>
