<svg width="33" height="33" viewBox="0 0 33 33" fill="none" xmlns="http://www.w3.org/2000/svg">
<g clip-path="url(#clip0_5862_565)">
<path d="M16.5 33C25.6127 33 33 25.6127 33 16.5C33 7.3873 25.6127 0 16.5 0C7.3873 0 0 7.3873 0 16.5C0 25.6127 7.3873 33 16.5 33Z" fill="#4065D6"/>
<path d="M24.1131 21.2154C23.7267 21.2697 21.8487 21.2154 21.751 21.2154C21.2655 21.2203 20.7976 21.0339 20.4484 20.6965C20.0511 20.3144 19.6929 19.8932 19.3129 19.4959C19.1976 19.3748 19.0735 19.2623 18.9417 19.1594C18.6312 18.9228 18.3251 18.977 18.1796 19.3418C18.0657 19.7371 17.9873 20.1418 17.9452 20.551C17.9384 20.7234 17.8635 20.8861 17.7369 21.0033C17.6103 21.1206 17.4424 21.1828 17.27 21.1763C17.0138 21.1893 16.7576 21.1958 16.5036 21.1893C15.5796 21.1845 14.6698 20.9614 13.8484 20.538C12.9617 20.0425 12.1888 19.3665 11.5796 18.5537C10.605 17.2667 9.76274 15.8847 9.06557 14.4287C9.02866 14.3549 8.29702 12.7982 8.27965 12.7266C8.23429 12.6246 8.22996 12.509 8.26756 12.4039C8.30515 12.2988 8.38179 12.2122 8.48156 12.1621C8.61182 12.1122 11.0239 12.1621 11.0629 12.1621C11.2425 12.1604 11.418 12.2161 11.5637 12.3212C11.7094 12.4263 11.8177 12.5751 11.8727 12.7461C12.3188 13.8834 12.928 14.9497 13.6812 15.9115C13.7863 16.0411 13.9099 16.1545 14.0481 16.248C14.0838 16.2824 14.1279 16.3067 14.176 16.3182C14.2242 16.3298 14.2745 16.3284 14.3219 16.314C14.3693 16.2996 14.4119 16.2728 14.4455 16.2364C14.479 16.2 14.5023 16.1553 14.5127 16.1069C14.6082 15.793 14.6643 15.4685 14.6799 15.1408C14.6929 14.4895 14.6799 14.0553 14.643 13.4039C14.6561 13.182 14.5812 12.9638 14.4345 12.7968C14.2877 12.6297 14.081 12.5273 13.8593 12.5116C13.6682 12.4791 13.6421 12.3228 13.7746 12.1664C14.0286 11.843 14.3803 11.7908 14.7624 11.7713C15.3399 11.7387 15.9196 11.7713 16.4993 11.7713H16.6252C16.8797 11.7707 17.1336 11.7961 17.3829 11.8473C17.5286 11.8772 17.6609 11.9533 17.7599 12.0644C17.8588 12.1755 17.9193 12.3156 17.9321 12.4639C17.9614 12.6279 17.9745 12.7944 17.9712 12.961C17.956 13.671 17.9213 14.3809 17.9126 15.093C17.9074 15.3743 17.9329 15.6553 17.9886 15.931C18.0733 16.3088 18.3316 16.4043 18.5965 16.1286C18.9266 15.7743 19.2292 15.3955 19.5018 14.9953C19.992 14.2667 20.3957 13.4835 20.7046 12.6614C20.8718 12.2403 20.9998 12.1469 21.4536 12.1469H24.0133C24.166 12.1444 24.3182 12.1648 24.4648 12.2077C24.5166 12.2215 24.565 12.2458 24.6069 12.279C24.6489 12.3123 24.6836 12.3538 24.7088 12.4011C24.7341 12.4483 24.7493 12.5002 24.7537 12.5536C24.758 12.607 24.7513 12.6607 24.7341 12.7114C24.5844 13.256 24.3275 13.7653 23.9785 14.2094C23.4575 14.9454 22.9104 15.664 22.3763 16.3805C22.3087 16.4742 22.2471 16.5721 22.1918 16.6735C21.992 17.0339 22.0072 17.238 22.296 17.542C22.7606 18.0196 23.2577 18.469 23.705 18.9597C24.0348 19.3172 24.3327 19.7029 24.5951 20.1125C24.9251 20.6422 24.7232 21.1285 24.1131 21.2154Z" fill="white"/>
</g>
<defs>
<clipPath id="clip0_5862_565">
<rect width="33" height="33" fill="white"/>
</clipPath>
</defs>
</svg>
