<svg width="36" height="36" viewBox="0 0 36 36" fill="none" xmlns="http://www.w3.org/2000/svg">
<rect width="36" height="36" fill="#D6BBD3"/>
<path d="M26.9985 0.00749033L22.3302 0C17.0854 0 13.6961 3.47738 13.6961 8.85956V12.9444H9.00224C8.59664 12.9444 8.26819 13.2732 8.26819 13.6788V19.5973C8.26819 20.0029 8.59701 20.3314 9.00224 20.3314H13.6961V35.2656C13.6961 35.6712 14.0245 35.9996 14.4301 35.9996H20.5542C20.9598 35.9996 21.2883 35.6708 21.2883 35.2656V20.3314H26.7764C27.182 20.3314 27.5105 20.0029 27.5105 19.5973L27.5127 13.6788C27.5127 13.4841 27.4352 13.2976 27.2977 13.1598C27.1603 13.0219 26.973 12.9444 26.7783 12.9444H21.2883V9.48163C21.2883 7.81728 21.6849 6.97237 23.8529 6.97237L26.9978 6.97125C27.403 6.97125 27.7314 6.64242 27.7314 6.2372V0.741542C27.7314 0.33669 27.4034 0.00823936 26.9985 0.00749033Z" fill="white"/>
</svg>
