<svg width="33" height="18" viewBox="0 0 33 18" fill="none" xmlns="http://www.w3.org/2000/svg">
<path d="M32.6703 14.5614L17.2602 0.553148C17.04 0.352783 16.7867 0.252441 16.5002 0.252441C16.2136 0.252441 15.9599 0.352783 15.7396 0.553148L0.330777 14.5614C0.110027 14.7621 0 14.9923 0 15.2529C0 15.5134 0.110375 15.744 0.330777 15.9443L1.98374 17.4468C2.20414 17.6472 2.45778 17.7473 2.74432 17.7473C3.03085 17.7473 3.28449 17.6472 3.50489 17.4468L16.5002 5.63315L29.4959 17.4476C29.7162 17.6479 29.97 17.7474 30.256 17.7474C30.543 17.7474 30.7967 17.6473 31.017 17.4476L32.6701 15.9444C32.8904 15.7441 32.9999 15.5134 32.9999 15.253C33 14.9923 32.8906 14.7617 32.6703 14.5614Z" fill="white"/>
</svg>
