<svg width="50" height="50" viewBox="0 0 50 50" fill="none" xmlns="http://www.w3.org/2000/svg">
<g clip-path="url(#clip0_5856_2092)">
<path d="M13.7993 38.2541L24.5287 45.5696C24.8227 45.7689 25.2084 45.7689 25.502 45.5696L36.2348 38.2545C39.2484 36.1995 41.7068 31.5632 41.7068 27.9187V12.569C41.7043 12.2397 41.515 11.9402 41.2189 11.7959L25.3994 4.02746C25.1596 3.91012 24.8791 3.91012 24.6394 4.02746L8.81812 11.7724C8.52076 11.9162 8.33107 12.2157 8.32812 12.5458V27.9187C8.32812 31.5632 10.7861 36.1995 13.7993 38.2541ZM10.0509 13.083L25.0158 5.76033L39.9841 13.1057V27.9187C39.9841 30.9546 37.7755 35.119 35.2645 36.8308L25.0208 43.8153L14.7717 36.8308C12.2611 35.119 10.0509 30.9546 10.0509 27.9187V13.083Z" fill="white"/>
<path d="M11.797 41.1759L24.5235 49.8503C24.8183 50.0501 25.2049 50.0501 25.4997 49.8503L38.2337 41.1763C42.1642 38.4967 45.2586 32.673 45.2586 27.9186V10.3658C45.2527 10.0347 45.0605 9.7357 44.7623 9.59228L25.4038 0.0880103C25.1632 -0.0293368 24.8818 -0.0293368 24.6413 0.0880103L5.27269 9.5662C4.97322 9.70878 4.78017 10.0083 4.77344 10.3397V27.9186C4.77344 32.673 7.86694 38.4967 11.797 41.1759ZM6.49621 10.8768L25.0164 1.82088L43.5362 10.902V27.9186C43.5362 32.1624 40.7733 37.3606 37.2643 39.753L25.0232 48.096L12.7715 39.7526C9.26333 37.361 6.49621 32.1624 6.49621 27.9186V10.8768Z" fill="white"/>
<path d="M21.9843 32.9352C22.1463 33.0963 22.3663 33.1854 22.5946 33.1829H22.5967C22.8239 33.1858 23.0434 33.0975 23.2058 32.9385L35.4443 20.7033C35.6063 20.5422 35.6971 20.3235 35.6971 20.0951C35.6971 19.8667 35.6063 19.648 35.4443 19.4869L33.0082 17.0517C32.6718 16.7152 32.1262 16.7152 31.7898 17.0517L22.6115 26.2304L18.2658 21.8419C17.931 21.5037 17.3855 21.5012 17.0474 21.836L14.5991 24.2603C14.4367 24.4214 14.345 24.6401 14.3438 24.8685C14.3429 25.0956 14.4325 25.3139 14.5932 25.475L21.9843 32.9352ZM17.6476 23.6669L21.9965 28.0701C22.1564 28.2362 22.3759 28.3326 22.6064 28.3372H22.6085C22.8386 28.333 23.0573 28.2379 23.2175 28.073L32.3992 18.8859L33.6173 20.101L22.5997 31.1173L16.4236 24.8803L17.6476 23.6669Z" fill="white"/>
</g>
<defs>
<clipPath id="clip0_5856_2092">
<rect width="50" height="50" fill="white"/>
</clipPath>
</defs>
</svg>
