<svg width="63" height="63" viewBox="0 0 63 63" fill="none" xmlns="http://www.w3.org/2000/svg">
<g clip-path="url(#clip0_5856_2339)">
<path d="M54.0884 48.9405C53.0208 48.9413 51.977 48.6254 51.089 48.0329C50.2009 47.4403 49.5085 46.5977 49.0995 45.6116C48.6904 44.6255 48.5829 43.5402 48.7907 42.493C48.9985 41.4458 49.5122 40.4838 50.2669 39.7286C51.0215 38.9734 51.9831 38.459 53.0302 38.2505C54.0772 38.0419 55.1625 38.1486 56.1489 38.5569C57.1353 38.9653 57.9785 39.657 58.5717 40.5447C59.1649 41.4323 59.4815 42.4759 59.4815 43.5435C59.4808 44.974 58.9125 46.3457 57.9014 47.3576C56.8902 48.3695 55.5189 48.9388 54.0884 48.9405ZM54.0884 40.1152C53.4102 40.1145 52.747 40.3149 52.1827 40.6911C51.6184 41.0673 51.1784 41.6025 50.9183 42.2288C50.6583 42.8552 50.5898 43.5446 50.7216 44.2099C50.8535 44.8752 51.1797 45.4864 51.659 45.9662C52.1383 46.4461 52.7491 46.773 53.4142 46.9056C54.0794 47.0382 54.7689 46.9705 55.3955 46.7112C56.0222 46.4518 56.5578 46.0124 56.9347 45.4485C57.3116 44.8847 57.5127 44.2217 57.5127 43.5435C57.5124 42.635 57.1516 41.7639 56.5096 41.1211C55.8677 40.4784 54.9969 40.1166 54.0884 40.1152Z" fill="white"/>
<path d="M25.6522 48.9405C24.5846 48.9415 23.5406 48.6259 22.6524 48.0335C21.7642 47.4411 21.0716 46.5985 20.6623 45.6125C20.253 44.6264 20.1454 43.5411 20.3531 42.4938C20.5607 41.4465 21.0743 40.4844 21.8289 39.7291C22.5835 38.9738 23.5451 38.4592 24.5922 38.2506C25.6392 38.0419 26.7246 38.1485 27.7111 38.5568C28.6976 38.9651 29.5408 39.6569 30.1341 40.5445C30.7273 41.4322 31.044 42.4758 31.044 43.5435C31.043 44.9736 30.4747 46.345 29.464 47.3567C28.4532 48.3685 27.0824 48.938 25.6522 48.9405ZM25.6522 40.1152C24.974 40.1142 24.3106 40.3144 23.7462 40.6904C23.1817 41.0665 22.7415 41.6016 22.4812 42.2279C22.2209 42.8542 22.1523 43.5437 22.284 44.2091C22.4157 44.8744 22.7418 45.4858 23.221 45.9658C23.7002 46.4457 24.3111 46.7728 24.9762 46.9055C25.6414 47.0382 26.331 46.9706 26.9577 46.7113C27.5845 46.452 28.1202 46.0125 28.4971 45.4487C28.874 44.8848 29.0752 44.2217 29.0752 43.5435C29.0746 42.6354 28.7139 41.7646 28.0722 41.122C27.4306 40.4793 26.5604 40.1173 25.6522 40.1152Z" fill="white"/>
<path d="M61.1881 44.5278H58.4961C58.2351 44.5278 57.9847 44.4241 57.8001 44.2395C57.6155 44.0549 57.5118 43.8045 57.5118 43.5434C57.5118 43.2823 57.6155 43.032 57.8001 42.8473C57.9847 42.6627 58.2351 42.559 58.4961 42.559H60.9098V37.3392C60.9092 36.6335 60.7285 35.9396 60.3848 35.3232L55.0561 25.7695C55.0105 25.688 54.9441 25.6201 54.8636 25.5728C54.7831 25.5255 54.6914 25.5005 54.598 25.5005H47.3359V42.563H49.6801C49.9411 42.563 50.1915 42.6667 50.3761 42.8513C50.5607 43.0359 50.6644 43.2863 50.6644 43.5473C50.6644 43.8084 50.5607 44.0588 50.3761 44.2434C50.1915 44.428 49.9411 44.5317 49.6801 44.5317H46.3516C46.0905 44.5317 45.8401 44.428 45.6555 44.2434C45.4709 44.0588 45.3672 43.8084 45.3672 43.5473V24.5161C45.3672 24.255 45.4709 24.0047 45.6555 23.8201C45.8401 23.6354 46.0905 23.5317 46.3516 23.5317H54.598C55.0421 23.5315 55.4782 23.6499 55.8612 23.8746C56.2443 24.0994 56.5603 24.4223 56.7768 24.8101L62.1042 34.3651C62.6107 35.2746 62.8768 36.2982 62.8773 37.3392V42.8386C62.8766 43.2864 62.6984 43.7156 62.3817 44.0323C62.0651 44.3489 61.6359 44.5271 61.1881 44.5278Z" fill="white"/>
<path d="M21.2429 44.528H11.8047C11.5436 44.528 11.2932 44.4243 11.1086 44.2397C10.924 44.0551 10.8203 43.8047 10.8203 43.5437V35.9731C10.8203 35.7121 10.924 35.4617 11.1086 35.2771C11.2932 35.0925 11.5436 34.9888 11.8047 34.9888C12.0658 34.9888 12.3161 35.0925 12.5007 35.2771C12.6854 35.4617 12.7891 35.7121 12.7891 35.9731V42.5593H21.2429C21.5039 42.5593 21.7543 42.663 21.9389 42.8476C22.1235 43.0322 22.2273 43.2826 22.2273 43.5437C22.2273 43.8047 22.1235 44.0551 21.9389 44.2397C21.7543 44.4243 21.5039 44.528 21.2429 44.528Z" fill="white"/>
<path d="M11.8047 32.4803C11.5436 32.4803 11.2932 32.3766 11.1086 32.192C10.924 32.0074 10.8203 31.757 10.8203 31.496V24.8862C10.8203 24.6252 10.924 24.3748 11.1086 24.1902C11.2932 24.0056 11.5436 23.9019 11.8047 23.9019C12.0658 23.9019 12.3161 24.0056 12.5007 24.1902C12.6854 24.3748 12.7891 24.6252 12.7891 24.8862V31.4999C12.788 31.7603 12.6839 32.0097 12.4994 32.1934C12.3149 32.3772 12.0651 32.4803 11.8047 32.4803Z" fill="white"/>
<path d="M46.3563 44.5279H30.0589C29.7979 44.5279 29.5475 44.4242 29.3629 44.2396C29.1783 44.055 29.0746 43.8046 29.0746 43.5436C29.0746 43.2825 29.1783 43.0321 29.3629 42.8475C29.5475 42.6629 29.7979 42.5592 30.0589 42.5592H45.3719V16.8066H12.7891V20.861C12.7891 21.122 12.6854 21.3724 12.5007 21.557C12.3161 21.7416 12.0658 21.8453 11.8047 21.8453C11.5436 21.8453 11.2932 21.7416 11.1086 21.557C10.924 21.3724 10.8203 21.122 10.8203 20.861V16.6255C10.821 16.1514 11.0098 15.6969 11.3451 15.3618C11.6805 15.0266 12.1351 14.8382 12.6093 14.8379H45.553C46.0269 14.8386 46.4812 15.0271 46.8163 15.3622C47.1514 15.6973 47.34 16.1516 47.3406 16.6255V43.5436C47.3406 43.8046 47.2369 44.055 47.0523 44.2396C46.8677 44.4242 46.6173 44.5279 46.3563 44.5279Z" fill="white"/>
<path d="M15.6968 36.9575H3.20313C2.94205 36.9575 2.69167 36.8538 2.50707 36.6692C2.32246 36.4846 2.21875 36.2342 2.21875 35.9731C2.21875 35.7121 2.32246 35.4617 2.50707 35.2771C2.69167 35.0925 2.94205 34.9888 3.20313 34.9888H15.6968C15.9579 34.9888 16.2083 35.0925 16.3929 35.2771C16.5775 35.4617 16.6812 35.7121 16.6812 35.9731C16.6812 36.2342 16.5775 36.4846 16.3929 36.6692C16.2083 36.8538 15.9579 36.9575 15.6968 36.9575Z" fill="white"/>
<path d="M25.6527 32.4805H8.21875C7.95768 32.4805 7.7073 32.3767 7.52269 32.1921C7.33809 32.0075 7.23438 31.7572 7.23438 31.4961C7.23438 31.235 7.33809 30.9846 7.52269 30.8C7.7073 30.6154 7.95768 30.5117 8.21875 30.5117H25.6527C25.9138 30.5117 26.1641 30.6154 26.3487 30.8C26.5333 30.9846 26.6371 31.235 26.6371 31.4961C26.6371 31.7572 26.5333 32.0075 26.3487 32.1921C26.1641 32.3767 25.9138 32.4805 25.6527 32.4805Z" fill="white"/>
<path d="M7.67512 27.2827H0.867187C0.606115 27.2827 0.355735 27.179 0.171129 26.9944C-0.0134769 26.8098 -0.117187 26.5594 -0.117188 26.2983C-0.117188 26.0373 -0.0134769 25.7869 0.171129 25.6023C0.355735 25.4177 0.606115 25.314 0.867187 25.314H7.67512C7.9362 25.314 8.18657 25.4177 8.37118 25.6023C8.55579 25.7869 8.6595 26.0373 8.6595 26.2983C8.6595 26.5594 8.55579 26.8098 8.37118 26.9944C8.18657 27.179 7.9362 27.2827 7.67512 27.2827Z" fill="white"/>
<path d="M18.5876 21.8452H6.57031C6.30924 21.8452 6.05886 21.7415 5.87425 21.5569C5.68965 21.3723 5.58594 21.1219 5.58594 20.8608C5.58594 20.5998 5.68965 20.3494 5.87425 20.1648C6.05886 19.9802 6.30924 19.8765 6.57031 19.8765H18.5876C18.8486 19.8765 19.099 19.9802 19.2836 20.1648C19.4682 20.3494 19.5719 20.5998 19.5719 20.8608C19.5719 21.1219 19.4682 21.3723 19.2836 21.5569C19.099 21.7415 18.8486 21.8452 18.5876 21.8452Z" fill="white"/>
</g>
<defs>
<clipPath id="clip0_5856_2339">
<rect width="63" height="63" fill="white"/>
</clipPath>
</defs>
</svg>
