<svg width="47" height="47" viewBox="0 0 47 47" fill="none" xmlns="http://www.w3.org/2000/svg">
<g clip-path="url(#clip0_5856_2369)">
<path d="M47 27.9061C47 26.7291 46.5319 25.6324 45.7251 24.8236C46.6397 23.8229 47.1058 22.4814 46.9784 21.0852C46.7493 18.5961 44.507 16.6456 41.8711 16.6456H29.7745C30.3737 14.8263 31.3333 11.4913 31.3333 8.81231C31.3333 4.56468 27.7241 0.979004 25.4583 0.979004C23.4256 0.979004 21.9705 2.12463 21.9098 2.17163C21.6767 2.3577 21.5416 2.6397 21.5416 2.93731V9.57799L15.8997 21.7961L15.6666 21.9155V21.5414C15.6666 21.0009 15.2279 20.5622 14.6874 20.5622H4.8958C2.19532 20.5623 0 22.7576 0 25.4581V41.1248C0 43.8254 2.19532 46.0206 4.8958 46.0206H10.7708C12.8877 46.0206 14.6972 44.6694 15.3787 42.7835C17.0081 43.6217 19.2014 44.0623 20.5625 44.0623H38.5381C40.6707 44.0623 42.537 42.6249 42.9756 40.6431C43.2008 39.6208 43.0696 38.5927 42.6231 37.6997C44.0684 36.9731 45.0417 35.4789 45.0417 33.7811C45.0417 33.0878 44.8831 32.4239 44.5834 31.8247C46.0287 31.0962 47 29.6039 47 27.9061ZM42.8699 30.3226C42.4919 30.3677 42.1727 30.6242 42.0513 30.9865C41.9319 31.3488 42.0318 31.7463 42.3098 32.0087C42.8073 32.4768 43.0834 33.1074 43.0834 33.7811C43.0834 35.0167 42.1493 36.0547 40.9136 36.1976C40.5357 36.2427 40.2164 36.4992 40.095 36.8615C39.9756 37.2238 40.0755 37.6213 40.3535 37.8837C40.9979 38.4908 41.2564 39.3427 41.0625 40.2201C40.8216 41.3128 39.7602 42.104 38.5382 42.104H20.5625C18.9723 42.104 16.3051 41.3579 15.3808 40.4316C15.1007 40.1535 14.6777 40.0713 14.3134 40.2201C13.9473 40.3709 13.7083 40.7293 13.7083 41.1248C13.7083 42.7444 12.3904 44.0623 10.7708 44.0623H4.8958C3.27623 44.0623 1.9583 42.7444 1.9583 41.1248V25.4581C1.9583 23.8385 3.27623 22.5206 4.8958 22.5206H13.7083V23.4998C13.7083 23.8386 13.8846 24.1539 14.1744 24.3341C14.4603 24.5064 14.8206 24.524 15.1261 24.3752L17.0844 23.396C17.2822 23.298 17.4409 23.1335 17.5349 22.9319L23.4099 10.2027C23.4686 10.0734 23.4999 9.93241 23.4999 9.79141V3.46798C23.9073 3.24281 24.6143 2.93731 25.4583 2.93731C26.5315 2.93731 29.375 5.60456 29.375 8.81231C29.375 12.259 27.4989 17.2272 27.4813 17.2763C27.3678 17.5759 27.4069 17.9147 27.589 18.181C27.7731 18.4454 28.0747 18.604 28.3958 18.604H41.8711C43.5044 18.604 44.8909 19.7731 45.0279 21.2654C45.1317 22.3816 44.5951 23.4431 43.6336 24.0365C43.334 24.2205 43.1558 24.5535 43.1695 24.9079C43.1832 25.2623 43.3869 25.5796 43.7002 25.7421C44.5286 26.1632 45.0416 26.9935 45.0416 27.9061C45.0417 29.1417 44.1076 30.1797 42.8699 30.3226Z" fill="white"/>
<path d="M14.6901 22.521C14.1496 22.521 13.7109 22.9597 13.7109 23.5002V41.1252C13.7109 41.6657 14.1496 42.1044 14.6901 42.1044C15.2306 42.1044 15.6693 41.6657 15.6693 41.1252V23.5002C15.6693 22.9597 15.2306 22.521 14.6901 22.521Z" fill="white"/>
</g>
<defs>
<clipPath id="clip0_5856_2369">
<rect width="47" height="47" fill="white"/>
</clipPath>
</defs>
</svg>
