<svg width="55" height="55" viewBox="0 0 55 55" fill="none" xmlns="http://www.w3.org/2000/svg">
<path d="M31.3237 15.0169C29.9072 13.6006 27.6146 13.6004 26.198 15.0169L20.2943 20.9207L18.8201 19.4467C17.4093 18.036 15.1222 18.0312 13.7059 19.4474C12.296 20.8575 12.296 23.1527 13.7059 24.5628L19.612 30.471C20.0429 30.9019 20.7189 30.8887 21.1361 30.466L31.3401 20.1261C32.7352 18.7132 32.7278 16.4212 31.3237 15.0169ZM29.8112 18.617L20.3668 28.1835L15.225 23.0418C14.6527 22.4694 14.6527 21.5381 15.225 20.9657C15.7985 20.3923 16.7272 20.3919 17.301 20.9657L19.5346 23.1995C19.9539 23.6187 20.6343 23.619 21.0537 23.1995L27.717 16.5361C28.2937 15.9592 29.2277 15.9591 29.8044 16.5361C30.3764 17.108 30.3794 18.0415 29.8112 18.617Z" fill="white"/>
<path d="M48.4555 40.2266L37.9337 31.2052C41.9089 24.2687 40.7647 15.49 35.0818 9.80689C28.1388 2.86421 16.9012 2.86346 9.95741 9.80699C3.01473 16.7498 3.01366 27.9882 9.95741 34.9319C15.772 40.747 24.5218 41.6474 31.2532 37.841L39.9179 48.5315C42.1467 51.2812 46.2738 51.5123 48.7916 48.9945C51.252 46.534 51.097 42.4912 48.4555 40.2266ZM11.4766 33.4119C5.3735 27.3089 5.37243 17.43 11.4766 11.3258C17.5795 5.22287 27.4586 5.2219 33.5625 11.3258C40.5163 18.2797 39.4164 30.1015 30.9221 35.5358C30.9219 35.5359 30.9216 35.5362 30.9214 35.5363C24.9552 39.3516 16.8262 38.7619 11.4766 33.4119ZM47.2723 47.4751C45.666 49.0816 43.0203 48.9469 41.5868 47.1785L33.0667 36.6664C34.4861 35.615 35.7375 34.3612 36.7436 33.0147L47.0572 41.8576C48.743 43.3031 48.8611 45.8866 47.2723 47.4751Z" fill="white"/>
</svg>
