<svg width="46" height="50" viewBox="0 0 46 50" fill="none" xmlns="http://www.w3.org/2000/svg">
<path d="M34.3267 21.6446V12.1822C34.3267 11.9114 34.2016 11.6611 34.0246 11.4632L23.4159 0.323105C23.2179 0.114822 22.9364 0 22.6552 0H5.83548C2.73032 0 0.25 2.5322 0.25 5.63774V37.4428C0.25 40.5483 2.73032 43.0389 5.83548 43.0389H19.1121C21.6234 47.2073 26.188 50 31.3878 50C39.2869 50 45.7376 43.5806 45.7376 35.6712C45.7483 28.7621 40.7876 22.9889 34.3267 21.6446ZM23.6974 3.65791L30.8149 11.1504H26.1983C24.8228 11.1504 23.6974 10.0147 23.6974 8.63915V3.65791ZM5.83548 40.9546C3.88693 40.9546 2.33435 39.3913 2.33435 37.4428V5.63774C2.33435 3.67851 3.88693 2.08435 5.83548 2.08435H21.6131V8.63915C21.6131 11.1713 23.6661 13.2347 26.1983 13.2347H32.2423V21.3734C31.9299 21.3631 31.6797 21.3318 31.4088 21.3318C27.7719 21.3318 24.4268 22.7284 21.9049 24.9168H8.67018C8.09683 24.9168 7.62801 25.3857 7.62801 25.9586C7.62801 26.532 8.09683 27.0008 8.67018 27.0008H19.9666C19.2266 28.043 18.6117 29.0852 18.1325 30.2315H8.67018C8.09683 30.2315 7.62801 30.7003 7.62801 31.2737C7.62801 31.8466 8.09683 32.3158 8.67018 32.3158H17.455C17.1945 33.358 17.0591 34.5146 17.0591 35.6712C17.0591 37.5469 17.4238 39.402 18.0803 40.9653H5.83548V40.9546ZM31.3985 47.9263C24.6457 47.9263 19.1537 42.4343 19.1537 35.6815C19.1537 28.9288 24.6351 23.4367 31.3985 23.4367C38.1616 23.4367 43.6429 28.9288 43.6429 35.6815C43.6429 42.4343 38.1513 47.9263 31.3985 47.9263Z" fill="white"/>
<path d="M8.66718 21.7802H19.2236C19.7969 21.7802 20.2658 21.3109 20.2658 20.738C20.2658 20.1646 19.7969 19.6958 19.2236 19.6958H8.66718C8.09383 19.6958 7.625 20.1646 7.625 20.738C7.625 21.3109 8.09383 21.7802 8.66718 21.7802Z" fill="white"/>
<path d="M37.0638 30.9919L29.1853 38.2032L25.3298 34.0139C24.9441 33.5867 24.2769 33.5661 23.8604 33.9514C23.4331 34.337 23.4121 35.0042 23.7978 35.4208L28.3621 40.3707C28.5704 40.5897 28.8519 40.7045 29.1334 40.7045C29.3833 40.7045 29.6335 40.6107 29.8418 40.4333L38.481 32.5136C38.9082 32.1279 38.9395 31.4607 38.5435 31.0442C38.1476 30.6272 37.4911 30.596 37.0638 30.9919Z" fill="white"/>
</svg>
