<svg width="59" height="32" viewBox="0 0 59 32" fill="none" xmlns="http://www.w3.org/2000/svg">
<path d="M55.9222 7.34779C54.3426 5.6365 52.0927 4.6911 49.5916 4.6911H43.5722V1.43605C43.5722 0.646223 42.926 0 42.1361 0H13.463C12.6732 0 12.0269 0.646223 12.0269 1.43605V6.43829H6.43831C5.64848 6.43829 5.00226 7.08452 5.00226 7.87435C5.00226 8.66417 5.64848 9.3104 6.43831 9.3104H13.4271C13.4391 9.3104 13.451 9.3104 13.463 9.3104C13.463 9.3104 13.463 9.3104 13.475 9.3104C14.2648 9.3104 14.911 8.66417 14.911 7.87435V2.8721H40.7121V6.12715V25.3822H27.1892C27.1294 25.3822 27.0696 25.3822 27.0097 25.3942C26.2917 23.623 24.5565 22.3665 22.534 22.3665C20.4996 22.3665 18.7644 23.635 18.0583 25.4181C17.9506 25.3942 17.8549 25.3822 17.7472 25.3822H14.911V20.368C14.911 19.5782 14.2648 18.9319 13.475 18.9319C13.451 18.9319 13.4271 18.9319 13.4032 18.9319C13.3792 18.9319 13.3673 18.9319 13.3433 18.9319H6.43831C5.64848 18.9319 5.00226 19.5782 5.00226 20.368C5.00226 21.1578 5.64848 21.804 6.43831 21.804H12.0269V26.8063C12.0269 27.5961 12.6732 28.2423 13.463 28.2423H17.7352C17.7711 28.2423 17.7951 28.2423 17.831 28.2423C18.3097 30.3964 20.2364 32 22.534 32C24.8317 32 26.7465 30.3964 27.2371 28.2423H42.1481H44.4458C44.9364 30.3844 46.8512 32 49.1488 32C51.4465 32 53.3613 30.3964 53.8519 28.2423H57.0591C57.8489 28.2423 58.4951 27.5961 58.4951 26.8063V14.8751C58.4951 11.7756 57.5976 9.16679 55.9222 7.34779ZM22.534 29.1399C21.457 29.1399 20.5834 28.2663 20.5834 27.1892C20.5834 26.1122 21.457 25.2386 22.534 25.2386C23.6111 25.2386 24.4847 26.1122 24.4847 27.1892C24.4847 28.2663 23.6111 29.1399 22.534 29.1399ZM49.1488 29.1399C48.0718 29.1399 47.1982 28.2663 47.1982 27.1892C47.1982 26.1122 48.0718 25.2386 49.1488 25.2386C50.2259 25.2386 51.0995 26.1122 51.0995 27.1892C51.0875 28.2663 50.2139 29.1399 49.1488 29.1399ZM55.623 25.3822H53.6126C52.8945 23.623 51.1593 22.3665 49.1488 22.3665C47.1384 22.3665 45.4031 23.6111 44.6851 25.3822H43.5842V7.5632H49.6036C53.3732 7.5632 55.623 10.3037 55.623 14.8871V25.3822Z" fill="white"/>
<path d="M24.6642 16.8138C24.1017 17.3762 24.1017 18.2857 24.6642 18.8482C24.9394 19.1234 25.3104 19.267 25.6814 19.267C26.0524 19.267 26.4114 19.1234 26.6986 18.8482L30.3964 15.1504L30.4084 15.1384C30.4323 15.1025 30.4682 15.0786 30.4921 15.0427C30.5041 15.0187 30.5161 15.0068 30.528 14.9828C30.54 14.9589 30.552 14.9469 30.5759 14.923C30.5879 14.8991 30.5998 14.8751 30.6118 14.8512C30.6238 14.8273 30.6357 14.8153 30.6477 14.7914C30.6597 14.7674 30.6716 14.7435 30.6836 14.7196C30.6956 14.6956 30.7076 14.6837 30.7076 14.6597C30.7195 14.6358 30.7195 14.6119 30.7315 14.5879C30.7434 14.564 30.7435 14.5401 30.7554 14.5281C30.7674 14.5042 30.7674 14.4802 30.7674 14.4563C30.7674 14.4323 30.7794 14.4084 30.7794 14.3845C30.7794 14.3605 30.7913 14.3366 30.7913 14.3007C30.7913 14.2768 30.8033 14.2648 30.8033 14.2409C30.8153 14.1451 30.8153 14.0494 30.8033 13.9537C30.8033 13.9297 30.8033 13.9178 30.7913 13.8938C30.7913 13.8699 30.7794 13.846 30.7794 13.8101C30.7794 13.7861 30.7674 13.7622 30.7674 13.7383C30.7674 13.7143 30.7554 13.6904 30.7554 13.6665C30.7435 13.6425 30.7434 13.6186 30.7315 13.6066C30.7195 13.5827 30.7195 13.5588 30.7076 13.5348C30.6956 13.5109 30.6836 13.4989 30.6836 13.475C30.6716 13.451 30.6597 13.4271 30.6477 13.4032C30.6357 13.3792 30.6238 13.3673 30.6118 13.3433C30.5998 13.3194 30.5879 13.2955 30.5759 13.2715C30.5639 13.2476 30.552 13.2356 30.528 13.2117C30.5161 13.1878 30.5041 13.1758 30.4921 13.1519C30.4682 13.116 30.4323 13.092 30.4084 13.0561L30.3964 13.0442L26.8781 9.52584C26.3156 8.96339 25.4061 8.96339 24.8437 9.52584C24.2812 10.0883 24.2812 10.9978 24.8437 11.5602L25.9087 12.6253H1.43605C0.646223 12.6253 0 13.2715 0 14.0614C0 14.8512 0.646223 15.4974 1.43605 15.4974H25.8968L24.6642 16.8138Z" fill="white"/>
</svg>
