<svg width="49" height="42" viewBox="0 0 49 42" fill="none" xmlns="http://www.w3.org/2000/svg">
<path d="M34.1537 22.8574H27.6216C25.8339 22.8574 24.3801 24.3112 24.3801 26.0989V31.1085C24.3801 32.8963 25.8339 34.3501 27.6216 34.3501H34.1537C35.9415 34.3501 37.3952 32.8963 37.3952 31.1085V26.0989C37.3952 24.3112 35.9415 22.8574 34.1537 22.8574ZM35.0378 31.1085C35.0378 31.5997 34.6351 31.9926 34.1537 31.9926H27.6216C27.1305 31.9926 26.7376 31.5899 26.7376 31.1085V26.0989C26.7376 25.6078 27.1403 25.2149 27.6216 25.2149H34.1537C34.6449 25.2149 35.0378 25.6176 35.0378 26.0989V31.1085Z" fill="white"/>
<path d="M48.0726 13.7519C48.0726 13.5456 48.0235 13.3491 47.9154 13.1723L40.7645 0.599189C40.5582 0.235746 40.1653 0 39.7429 0H8.31988C7.8975 0 7.50459 0.225924 7.29831 0.599189L0.157164 13.1723C0.0589366 13.3491 0 13.5456 0 13.7519C0 16.571 1.69934 18.9874 4.12556 20.0581V40.7939C4.12556 41.4422 4.65599 41.9727 5.30429 41.9727H11.8168C11.8266 41.9727 11.8364 41.9727 11.8462 41.9727H20.9814C20.9912 41.9727 21.0011 41.9727 21.0109 41.9727H42.7585C43.4068 41.9727 43.9372 41.4422 43.9372 40.7939V20.2054C43.9372 20.1563 43.9372 20.117 43.9274 20.0777C46.3634 19.007 48.0726 16.5808 48.0726 13.7519ZM9.00747 2.36729H39.0553L44.6444 12.1999H3.42814L9.00747 2.36729ZM34.2127 14.5475C33.8394 16.6692 31.9829 18.2802 29.7531 18.2802C27.5234 18.2802 25.6669 16.6692 25.2936 14.5475H34.2127ZM22.7888 14.5475C22.4155 16.6692 20.559 18.2802 18.3293 18.2802C16.0995 18.2802 14.243 16.6692 13.8599 14.5475H22.7888ZM2.43604 14.5475H11.3649C10.9917 16.6692 9.12534 18.2802 6.89558 18.2802C4.66581 18.29 2.80931 16.6692 2.43604 14.5475ZM19.8027 39.6152H13.025V26.8947C13.025 25.9714 13.7715 25.215 14.7047 25.215H18.1328C19.0562 25.215 19.8125 25.9616 19.8125 26.8947V39.6152H19.8027ZM41.5797 39.6152H22.1601V26.8947C22.1601 24.6748 20.3528 22.8576 18.123 22.8576H14.6948C12.4749 22.8576 10.6577 24.665 10.6577 26.8947V39.625H6.48302V20.6376C6.62054 20.6474 6.75806 20.6474 6.89558 20.6474C9.27269 20.6474 11.3748 19.4392 12.6124 17.6024C13.8501 19.4392 15.9522 20.6474 18.3293 20.6474C20.7064 20.6474 22.7986 19.4392 24.0461 17.6024C25.2838 19.4392 27.3859 20.6474 29.7531 20.6474C32.1302 20.6474 34.2225 19.4392 35.4602 17.6024C36.6978 19.4392 38.7999 20.6474 41.177 20.6474C41.3145 20.6474 41.4422 20.6376 41.5797 20.6376V39.6152ZM41.177 18.29C38.9472 18.29 37.0907 16.679 36.7175 14.5573H45.6464C45.2633 16.6692 43.4068 18.29 41.177 18.29Z" fill="white"/>
</svg>
