<svg width="50" height="61" viewBox="0 0 50 61" fill="none" xmlns="http://www.w3.org/2000/svg">
<path d="M15.1079 24.8237C15.1079 23.9942 14.4292 23.3154 13.5997 23.3154H1.50828C0.678726 23.3154 0 23.9942 0 24.8237C0 25.6533 0.678726 26.332 1.50828 26.332H13.5997C14.4292 26.332 15.1079 25.6533 15.1079 24.8237Z" fill="white"/>
<path d="M48.1393 23.3154H36.048C35.2184 23.3154 34.5397 23.9942 34.5397 24.8237C34.5397 25.6533 35.2184 26.332 36.048 26.332H48.1393C48.9689 26.332 49.6476 25.6533 49.6476 24.8237C49.6476 23.9942 48.9815 23.3154 48.1393 23.3154Z" fill="white"/>
<path d="M24.8238 15.1079C25.6534 15.1079 26.3321 14.4292 26.3321 13.5997V1.50828C26.3321 0.678726 25.6534 0 24.8238 0C23.9943 0 23.3156 0.678726 23.3156 1.50828V13.5997C23.3156 14.4292 23.9943 15.1079 24.8238 15.1079Z" fill="white"/>
<path d="M32.7548 18.401C33.1445 18.401 33.5215 18.2501 33.8232 17.9611L42.3827 9.40157C42.9734 8.81082 42.9734 7.85558 42.3827 7.26483C41.792 6.67409 40.8367 6.67409 40.246 7.26483L31.6865 15.8243C31.0957 16.4151 31.0957 17.3703 31.6865 17.9611C31.9881 18.2501 32.3778 18.401 32.7548 18.401Z" fill="white"/>
<path d="M15.8244 17.9611C16.1135 18.2501 16.5031 18.401 16.8928 18.401C17.2824 18.401 17.6595 18.2501 17.9611 17.9611C18.5519 17.3703 18.5519 16.4151 17.9611 15.8243L9.40163 7.26483C8.81088 6.67409 7.85564 6.67409 7.2649 7.26483C6.67415 7.85558 6.67415 8.81082 7.2649 9.40157L15.8244 17.9611Z" fill="white"/>
<path d="M42.9483 34.3384C41.8046 33.358 40.3591 32.8175 38.8886 32.8175H37.5185H32.5915H30.2536V26.7215C30.2536 23.8055 29.3864 21.6814 27.6644 20.4119C24.9495 18.426 21.2668 19.5446 21.1034 19.5949C20.475 19.796 20.0476 20.3742 20.0476 21.0278V28.3807C20.0476 30.6179 18.9792 32.5159 16.8551 34.0367C15.2462 35.1931 13.5997 35.721 13.386 35.7838L13.2352 35.8215C12.6696 35.1805 11.84 34.7783 10.9099 34.7783H5.17846C3.46907 34.7783 2.07391 36.1734 2.07391 37.8828V56.6861C2.07391 58.3955 3.46907 59.7906 5.17846 59.7906H10.9351C11.6892 59.7906 12.3931 59.5141 12.921 59.0616C14.0773 60.1928 15.6484 60.8841 17.3453 60.8841H23.0642H23.6549H35.3567C37.1666 60.8841 38.7629 60.4442 39.9821 59.6272C41.5406 58.5714 42.5084 56.8997 42.7849 54.763L45.1102 40.3087C45.4747 38.0714 44.6452 35.7838 42.9483 34.3384ZM11.0231 56.6861C11.0231 56.7364 10.9853 56.7741 10.9351 56.7741H5.17846C5.12818 56.7741 5.09048 56.7364 5.09048 56.6861V37.8828C5.09048 37.8326 5.12818 37.7948 5.17846 37.7948H10.9351C10.9853 37.7948 11.0231 37.8326 11.0231 37.8828V56.6861ZM42.1314 39.8436L39.8061 54.3231C39.8061 54.3357 39.8061 54.3608 39.7935 54.3859C39.693 55.2532 39.3662 57.8801 35.3567 57.8801H23.6549H23.0642H17.3453C15.7364 57.8801 14.3287 56.6735 14.0773 55.0772C14.0648 55.0144 14.0522 54.9515 14.0396 54.9013V38.7375L14.1276 38.7124C14.1527 38.7124 14.1653 38.6998 14.1904 38.6998C14.2784 38.6747 16.4152 38.0714 18.5393 36.5505C21.493 34.4515 23.0642 31.6235 23.0642 28.3807V22.2721C23.8937 22.1841 25.0375 22.2218 25.8796 22.8377C26.7846 23.5039 27.2371 24.8111 27.2371 26.709V34.3132C27.2371 35.1428 27.9158 35.8215 28.7454 35.8215H32.5915H37.5185H38.8886C39.6427 35.8215 40.3843 36.1106 40.9876 36.6134C41.8925 37.3926 42.3199 38.6244 42.1314 39.8436Z" fill="white"/>
</svg>
